<svg width="32" height="32" viewBox="0 0 32 32" fill="none" xmlns="http://www.w3.org/2000/svg">
<path d="M3.27197 10.586C3.64703 10.2111 4.15565 10.0004 4.68597 10.0004C5.2163 10.0004 5.72492 10.2111 6.09997 10.586L16 20.486L25.9 10.586C26.2772 10.2217 26.7824 10.0201 27.3068 10.0247C27.8312 10.0292 28.3328 10.2395 28.7036 10.6104C29.0744 10.9812 29.2848 11.4828 29.2893 12.0072C29.2939 12.5316 29.0923 13.0368 28.728 13.414L17.414 24.728C17.0389 25.1029 16.5303 25.3136 16 25.3136C15.4696 25.3136 14.961 25.1029 14.586 24.728L3.27197 13.414C2.89703 13.0389 2.6864 12.5303 2.6864 12C2.6864 11.4697 2.89703 10.9611 3.27197 10.586Z" fill="white"/>
</svg>
