<svg width="342" height="43" viewBox="0 0 342 43" fill="none" xmlns="http://www.w3.org/2000/svg">
<rect width="43" height="43" rx="21.5" fill="#FF7A40"/>
<path d="M20.0768 12.4396C20.327 11.9556 20.1383 11.3609 19.6584 11.1107C19.1785 10.8605 18.5797 11.0492 18.3295 11.5291L14.5109 18.875H11C10.274 18.875 9.6875 19.4615 9.6875 20.1875C9.6875 20.9134 10.274 21.5 11 21.5L13.1287 30.0107C13.4199 31.1796 14.4699 32 15.6758 32H27.3242C28.5301 32 29.5801 31.1796 29.8713 30.0107L32 21.5C32.726 21.5 33.3125 20.9134 33.3125 20.1875C33.3125 19.4615 32.726 18.875 32 18.875H28.4891L24.6705 11.5291C24.4203 11.0492 23.8256 10.8605 23.3416 11.1107C22.8576 11.3609 22.673 11.9556 22.9232 12.4396L26.2701 18.875H16.7299L20.0768 12.4396ZM17.5625 23.4687V27.4062C17.5625 27.7671 17.2672 28.0625 16.9062 28.0625C16.5453 28.0625 16.25 27.7671 16.25 27.4062V23.4687C16.25 23.1078 16.5453 22.8125 16.9062 22.8125C17.2672 22.8125 17.5625 23.1078 17.5625 23.4687ZM21.5 22.8125C21.8609 22.8125 22.1562 23.1078 22.1562 23.4687V27.4062C22.1562 27.7671 21.8609 28.0625 21.5 28.0625C21.1391 28.0625 20.8438 27.7671 20.8438 27.4062V23.4687C20.8438 23.1078 21.1391 22.8125 21.5 22.8125ZM26.75 23.4687V27.4062C26.75 27.7671 26.4547 28.0625 26.0938 28.0625C25.7328 28.0625 25.4375 27.7671 25.4375 27.4062V23.4687C25.4375 23.1078 25.7328 22.8125 26.0938 22.8125C26.4547 22.8125 26.75 23.1078 26.75 23.4687Z" fill="white"/>
<path d="M63.1378 18V4.90909H65.9055V15.718H71.5178V18H63.1378ZM73.2995 18V8.18182H76.0225V18H73.2995ZM74.6674 6.91619C74.2626 6.91619 73.9153 6.78196 73.6255 6.51349C73.34 6.24077 73.1973 5.91477 73.1973 5.53551C73.1973 5.16051 73.34 4.83878 73.6255 4.57031C73.9153 4.29758 74.2626 4.16122 74.6674 4.16122C75.0723 4.16122 75.4174 4.29758 75.7029 4.57031C75.9927 4.83878 76.1376 5.16051 76.1376 5.53551C76.1376 5.91477 75.9927 6.24077 75.7029 6.51349C75.4174 6.78196 75.0723 6.91619 74.6674 6.91619ZM81.8217 18.1598C81.076 18.1598 80.4006 17.968 79.7955 17.5845C79.1946 17.1967 78.7173 16.6278 78.3636 15.8778C78.0142 15.1236 77.8395 14.1989 77.8395 13.1037C77.8395 11.9787 78.0206 11.0433 78.3828 10.2976C78.745 9.54759 79.2266 8.98722 79.8274 8.61648C80.4325 8.24148 81.0952 8.05398 81.8153 8.05398C82.3651 8.05398 82.8232 8.14773 83.1896 8.33523C83.5604 8.51847 83.8587 8.74858 84.0845 9.02557C84.3146 9.2983 84.4893 9.56676 84.6087 9.83097H84.6918V4.90909H87.4084V18H84.7237V16.4276H84.6087C84.4808 16.7003 84.2997 16.9709 84.0653 17.2393C83.8352 17.5036 83.5348 17.723 83.1641 17.8977C82.7976 18.0724 82.3501 18.1598 81.8217 18.1598ZM82.6847 15.9929C83.1236 15.9929 83.4943 15.8736 83.7969 15.6349C84.1037 15.392 84.3381 15.0533 84.5 14.6186C84.6662 14.1839 84.7493 13.6747 84.7493 13.0909C84.7493 12.5071 84.6683 12 84.5064 11.5696C84.3445 11.1392 84.1101 10.8068 83.8033 10.5724C83.4964 10.3381 83.1236 10.2209 82.6847 10.2209C82.2372 10.2209 81.8601 10.3423 81.5533 10.5852C81.2464 10.8281 81.0142 11.1648 80.8565 11.5952C80.6989 12.0256 80.62 12.5241 80.62 13.0909C80.62 13.6619 80.6989 14.1669 80.8565 14.6058C81.0185 15.0405 81.2507 15.3814 81.5533 15.6286C81.8601 15.8714 82.2372 15.9929 82.6847 15.9929ZM92.3702 4.90909V18H89.6472V4.90909H92.3702Z" fill="white"/>
<path d="M62.9048 40V38.6676L66.4396 35.2024C66.7777 34.861 67.0594 34.5578 67.2848 34.2926C67.5102 34.0275 67.6792 33.7706 67.7919 33.522C67.9046 33.2734 67.9609 33.0083 67.9609 32.7266C67.9609 32.4051 67.888 32.13 67.7422 31.9013C67.5964 31.6693 67.3958 31.4903 67.1406 31.3643C66.8854 31.2384 66.5954 31.1754 66.2706 31.1754C65.9358 31.1754 65.6425 31.245 65.3906 31.3842C65.1387 31.5201 64.9432 31.714 64.804 31.9659C64.6681 32.2178 64.6001 32.5178 64.6001 32.8658H62.8452C62.8452 32.2195 62.9927 31.6577 63.2876 31.1804C63.5826 30.7031 63.9886 30.3336 64.5057 30.0717C65.026 29.8099 65.6226 29.679 66.2955 29.679C66.9782 29.679 67.5781 29.8066 68.0952 30.0618C68.6122 30.317 69.0133 30.6667 69.2983 31.1108C69.5866 31.5549 69.7308 32.062 69.7308 32.6321C69.7308 33.0133 69.6579 33.3878 69.5121 33.7557C69.3662 34.1236 69.1094 34.5312 68.7415 34.9787C68.3769 35.4261 67.8648 35.968 67.2053 36.6044L65.4503 38.3892V38.4588H69.8849V40H62.9048ZM71.1974 38.1108V36.6442L75.5178 29.8182H76.7408V31.9062H75.995L73.0866 36.5149V36.5945H79.1172V38.1108H71.1974ZM76.0547 40V37.6634L76.0746 37.0071V29.8182H77.8146V40H76.0547ZM84.2777 29.8182H86.5348L89.5575 37.196H89.6768L92.6996 29.8182H94.9567V40H93.1868V33.005H93.0923L90.2784 39.9702H88.956L86.142 32.9901H86.0476V40H84.2777V29.8182ZM99.0831 40.1541C98.5992 40.1541 98.1634 40.0679 97.7756 39.8956C97.3911 39.7199 97.0862 39.4614 96.8608 39.12C96.6387 38.7786 96.5277 38.3577 96.5277 37.8572C96.5277 37.4264 96.6072 37.0701 96.7663 36.7884C96.9254 36.5066 97.1425 36.2812 97.4176 36.1122C97.6927 35.9432 98.0026 35.8156 98.3473 35.7294C98.6953 35.6399 99.0549 35.5753 99.4261 35.5355C99.8736 35.4891 100.237 35.4477 100.515 35.4112C100.793 35.3714 100.996 35.3118 101.121 35.2322C101.251 35.1494 101.315 35.0218 101.315 34.8494V34.8196C101.315 34.4451 101.204 34.1551 100.982 33.9496C100.76 33.7441 100.44 33.6413 100.023 33.6413C99.5819 33.6413 99.2322 33.7375 98.9737 33.9297C98.7185 34.1219 98.5462 34.349 98.4567 34.6108L96.7763 34.3722C96.9089 33.9081 97.1276 33.5204 97.4325 33.2088C97.7375 32.8939 98.1103 32.6586 98.5511 32.5028C98.992 32.3438 99.4792 32.2642 100.013 32.2642C100.381 32.2642 100.747 32.3073 101.112 32.3935C101.476 32.4796 101.809 32.6222 102.111 32.821C102.412 33.0166 102.654 33.2834 102.837 33.6214C103.022 33.9595 103.115 34.3821 103.115 34.8892V40H101.385V38.951H101.325C101.216 39.1631 101.062 39.362 100.863 39.5476C100.667 39.7299 100.42 39.8774 100.122 39.9901C99.8272 40.0994 99.4808 40.1541 99.0831 40.1541ZM99.5504 38.8317C99.9117 38.8317 100.225 38.7604 100.49 38.6179C100.755 38.4721 100.959 38.2798 101.102 38.0412C101.247 37.8026 101.32 37.5424 101.32 37.2607V36.3608C101.264 36.4072 101.168 36.4503 101.032 36.4901C100.899 36.5298 100.75 36.5646 100.585 36.5945C100.419 36.6243 100.255 36.6508 100.092 36.674C99.9299 36.6972 99.7891 36.7171 99.6697 36.7337C99.4013 36.7701 99.161 36.8298 98.9489 36.9126C98.7367 36.9955 98.5694 37.1115 98.4467 37.2607C98.3241 37.4065 98.2628 37.5954 98.2628 37.8274C98.2628 38.1589 98.3838 38.4091 98.6257 38.5781C98.8677 38.7472 99.1759 38.8317 99.5504 38.8317ZM104.925 40V32.3636H106.67V33.6364H106.749C106.888 33.1955 107.127 32.8558 107.465 32.6172C107.807 32.3752 108.196 32.2543 108.634 32.2543C108.733 32.2543 108.844 32.2592 108.967 32.2692C109.093 32.2758 109.197 32.2874 109.28 32.304V33.9595C109.204 33.933 109.083 33.9098 108.917 33.8899C108.754 33.8667 108.597 33.8551 108.445 33.8551C108.116 33.8551 107.821 33.9264 107.56 34.0689C107.301 34.2081 107.097 34.402 106.948 34.6506C106.799 34.8991 106.724 35.1858 106.724 35.5107V40H104.925ZM113.492 40.1491C112.73 40.1491 112.075 39.9818 111.528 39.647C110.985 39.3123 110.565 38.8499 110.27 38.2599C109.979 37.6667 109.833 36.9839 109.833 36.2116C109.833 35.4361 109.982 34.7517 110.28 34.1584C110.579 33.5618 111 33.0978 111.543 32.7663C112.09 32.4316 112.736 32.2642 113.482 32.2642C114.102 32.2642 114.65 32.3786 115.128 32.6072C115.608 32.8326 115.991 33.1525 116.276 33.5668C116.561 33.9777 116.724 34.4583 116.763 35.0085H115.043C114.974 34.6406 114.808 34.334 114.546 34.0888C114.287 33.8402 113.941 33.7159 113.507 33.7159C113.139 33.7159 112.816 33.8153 112.537 34.0142C112.259 34.2098 112.042 34.4915 111.886 34.8594C111.734 35.2273 111.657 35.6681 111.657 36.1818C111.657 36.7022 111.734 37.1496 111.886 37.5241C112.039 37.8954 112.252 38.1821 112.528 38.3842C112.806 38.5831 113.132 38.6825 113.507 38.6825C113.772 38.6825 114.009 38.6328 114.218 38.5334C114.43 38.4306 114.607 38.2831 114.75 38.0909C114.892 37.8987 114.99 37.665 115.043 37.3899H116.763C116.72 37.9302 116.561 38.4091 116.286 38.8267C116.011 39.241 115.636 39.5658 115.162 39.8011C114.689 40.0331 114.132 40.1491 113.492 40.1491ZM120.041 35.5256V40H118.241V29.8182H120.001V33.6612H120.091C120.27 33.2304 120.546 32.8906 120.921 32.642C121.299 32.3902 121.779 32.2642 122.363 32.2642C122.893 32.2642 123.355 32.3752 123.75 32.5973C124.144 32.8194 124.449 33.1442 124.664 33.5717C124.883 33.9993 124.993 34.5213 124.993 35.1378V40H123.193V35.4162C123.193 34.9025 123.06 34.5031 122.795 34.218C122.533 33.9297 122.165 33.7855 121.691 33.7855C121.373 33.7855 121.088 33.8551 120.836 33.9943C120.588 34.1302 120.392 34.3274 120.25 34.5859C120.11 34.8445 120.041 35.1577 120.041 35.5256ZM128.94 38.608L128.875 39.1548C128.829 39.5724 128.746 39.9967 128.627 40.4276C128.511 40.8617 128.388 41.2611 128.259 41.6257C128.13 41.9903 128.025 42.277 127.946 42.4858H126.733C126.779 42.2836 126.842 42.0085 126.922 41.6605C127.004 41.3125 127.084 40.9214 127.16 40.4872C127.236 40.053 127.288 39.6122 127.314 39.1648L127.349 38.608H128.94ZM138.236 29.8182V40H136.391V31.6129H136.331L133.95 33.1342V31.4439L136.481 29.8182H138.236ZM144.55 40.1392C144.062 40.1359 143.587 40.0514 143.123 39.8857C142.659 39.7166 142.241 39.4432 141.87 39.0653C141.499 38.6842 141.204 38.1787 140.985 37.549C140.766 36.916 140.658 36.1321 140.662 35.1974C140.662 34.3258 140.755 33.5485 140.94 32.8658C141.126 32.183 141.393 31.6063 141.741 31.1357C142.089 30.6617 142.508 30.3004 142.998 30.0518C143.492 29.8033 144.044 29.679 144.654 29.679C145.294 29.679 145.86 29.8049 146.354 30.0568C146.851 30.3087 147.252 30.6534 147.557 31.0909C147.862 31.5251 148.051 32.0156 148.124 32.5625H146.309C146.217 32.1714 146.026 31.8598 145.738 31.6278C145.453 31.3925 145.091 31.2749 144.654 31.2749C143.948 31.2749 143.404 31.5814 143.023 32.1946C142.645 32.8078 142.455 33.6496 142.452 34.7202H142.521C142.684 34.4285 142.894 34.1783 143.153 33.9695C143.411 33.7607 143.703 33.5999 144.028 33.4872C144.356 33.3712 144.702 33.3132 145.067 33.3132C145.663 33.3132 146.198 33.4557 146.672 33.7408C147.15 34.0258 147.528 34.4186 147.806 34.919C148.084 35.4162 148.222 35.9863 148.219 36.6293C148.222 37.2988 148.069 37.9003 147.761 38.4339C147.453 38.9643 147.024 39.3819 146.474 39.6868C145.923 39.9917 145.282 40.1425 144.55 40.1392ZM144.54 38.6477C144.901 38.6477 145.224 38.5599 145.509 38.3842C145.794 38.2086 146.019 37.9716 146.185 37.6733C146.351 37.375 146.432 37.0402 146.429 36.669C146.432 36.3045 146.353 35.9747 146.19 35.6797C146.031 35.3847 145.811 35.151 145.529 34.9787C145.247 34.8063 144.926 34.7202 144.564 34.7202C144.296 34.7202 144.046 34.7715 143.814 34.8743C143.582 34.977 143.38 35.1196 143.207 35.3018C143.035 35.4808 142.899 35.6896 142.8 35.9283C142.703 36.1636 142.654 36.4155 142.65 36.6839C142.654 37.0386 142.737 37.3651 142.899 37.6634C143.061 37.9616 143.285 38.2003 143.57 38.3793C143.855 38.5582 144.178 38.6477 144.54 38.6477ZM151.028 38.777C150.726 38.777 150.467 38.6709 150.252 38.4588C150.037 38.2434 149.93 37.9848 149.934 37.6832C149.93 37.3849 150.037 37.1297 150.252 36.9176C150.467 36.7055 150.726 36.5994 151.028 36.5994C151.319 36.5994 151.573 36.7055 151.788 36.9176C152.007 37.1297 152.118 37.3849 152.121 37.6832C152.118 37.8854 152.065 38.0694 151.962 38.2351C151.863 38.4008 151.73 38.5334 151.564 38.6328C151.402 38.7289 151.223 38.777 151.028 38.777ZM151.028 33.7308C150.726 33.7308 150.467 33.6248 150.252 33.4126C150.037 33.1972 149.93 32.9387 149.934 32.6371C149.93 32.3388 150.037 32.0836 150.252 31.8714C150.467 31.656 150.726 31.5483 151.028 31.5483C151.319 31.5483 151.573 31.656 151.788 31.8714C152.007 32.0836 152.118 32.3388 152.121 32.6371C152.118 32.8359 152.065 33.0182 151.962 33.1839C151.863 33.3497 151.73 33.4822 151.564 33.5817C151.402 33.6811 151.223 33.7308 151.028 33.7308ZM157.614 40.1392C156.898 40.1392 156.261 40.0166 155.705 39.7713C155.151 39.526 154.714 39.1847 154.392 38.7472C154.071 38.3097 153.9 37.8042 153.88 37.2308H155.749C155.766 37.5059 155.857 37.7462 156.023 37.9517C156.188 38.1539 156.409 38.3113 156.684 38.424C156.959 38.5367 157.267 38.593 157.609 38.593C157.973 38.593 158.296 38.5301 158.578 38.4041C158.86 38.2749 159.08 38.0959 159.239 37.8672C159.398 37.6385 159.476 37.375 159.473 37.0767C159.476 36.7685 159.397 36.4967 159.234 36.2614C159.072 36.026 158.837 35.8421 158.528 35.7095C158.223 35.5769 157.856 35.5107 157.425 35.5107H156.525V34.0888H157.425C157.779 34.0888 158.089 34.0275 158.354 33.9048C158.623 33.7822 158.833 33.6098 158.986 33.3878C159.138 33.1624 159.213 32.9022 159.21 32.6072C159.213 32.3189 159.148 32.0687 159.016 31.8565C158.886 31.6411 158.702 31.4737 158.464 31.3544C158.228 31.2351 157.952 31.1754 157.634 31.1754C157.322 31.1754 157.034 31.2318 156.768 31.3445C156.503 31.4571 156.29 31.6179 156.127 31.8267C155.965 32.0322 155.879 32.2775 155.869 32.5625H154.094C154.107 31.9924 154.271 31.492 154.586 31.0611C154.904 30.6269 155.328 30.2888 155.859 30.0469C156.389 29.8016 156.984 29.679 157.643 29.679C158.323 29.679 158.913 29.8066 159.413 30.0618C159.917 30.3137 160.307 30.6534 160.582 31.081C160.857 31.5085 160.994 31.9808 160.994 32.4979C160.998 33.0713 160.829 33.5518 160.487 33.9396C160.149 34.3274 159.705 34.581 159.155 34.7003V34.7798C159.871 34.8793 160.419 35.1444 160.8 35.5753C161.185 36.0028 161.375 36.5348 161.372 37.1712C161.372 37.7412 161.21 38.2517 160.885 38.7024C160.563 39.1499 160.119 39.5012 159.553 39.7564C158.989 40.0116 158.343 40.1392 157.614 40.1392ZM166.733 40.1392C166.017 40.1392 165.381 40.0166 164.824 39.7713C164.27 39.526 163.833 39.1847 163.511 38.7472C163.19 38.3097 163.019 37.8042 162.999 37.2308H164.868C164.885 37.5059 164.976 37.7462 165.142 37.9517C165.308 38.1539 165.528 38.3113 165.803 38.424C166.078 38.5367 166.386 38.593 166.728 38.593C167.092 38.593 167.416 38.5301 167.697 38.4041C167.979 38.2749 168.199 38.0959 168.358 37.8672C168.518 37.6385 168.595 37.375 168.592 37.0767C168.595 36.7685 168.516 36.4967 168.354 36.2614C168.191 36.026 167.956 35.8421 167.648 35.7095C167.343 35.5769 166.975 35.5107 166.544 35.5107H165.644V34.0888H166.544C166.898 34.0888 167.208 34.0275 167.474 33.9048C167.742 33.7822 167.952 33.6098 168.105 33.3878C168.257 33.1624 168.332 32.9022 168.329 32.6072C168.332 32.3189 168.267 32.0687 168.135 31.8565C168.006 31.6411 167.822 31.4737 167.583 31.3544C167.348 31.2351 167.071 31.1754 166.753 31.1754C166.441 31.1754 166.153 31.2318 165.888 31.3445C165.622 31.4571 165.409 31.6179 165.246 31.8267C165.084 32.0322 164.998 32.2775 164.988 32.5625H163.213C163.226 31.9924 163.39 31.492 163.705 31.0611C164.023 30.6269 164.448 30.2888 164.978 30.0469C165.508 29.8016 166.103 29.679 166.763 29.679C167.442 29.679 168.032 29.8066 168.532 30.0618C169.036 30.3137 169.426 30.6534 169.701 31.081C169.976 31.5085 170.113 31.9808 170.113 32.4979C170.117 33.0713 169.948 33.5518 169.606 33.9396C169.268 34.3274 168.824 34.581 168.274 34.7003V34.7798C168.99 34.8793 169.538 35.1444 169.92 35.5753C170.304 36.0028 170.495 36.5348 170.491 37.1712C170.491 37.7412 170.329 38.2517 170.004 38.7024C169.683 39.1499 169.238 39.5012 168.672 39.7564C168.108 40.0116 167.462 40.1392 166.733 40.1392Z" fill="#A1A1A3"/>
<path d="M309.347 8.33523V10.0284H304.108V8.33523H309.347ZM319.76 15H311.555V13.233H319.76V15ZM317.442 10.4034H311.516V8.68182H317.442V10.4034ZM314.749 6.73295L314.93 11.6023C314.953 12.1061 314.87 12.5417 314.68 12.9091C314.495 13.2727 314.167 13.572 313.697 13.8068L312.197 13.233C312.383 13.2064 312.525 13.1098 312.624 12.9432C312.722 12.7765 312.788 12.5795 312.822 12.3523C312.857 12.1212 312.87 11.9015 312.862 11.6932L312.692 6.73295C312.665 5.96401 312.811 5.31818 313.129 4.79545C313.451 4.26894 313.889 3.87311 314.442 3.60795C314.995 3.33901 315.607 3.20455 316.277 3.20455C316.853 3.20455 317.368 3.29167 317.822 3.46591C318.281 3.64015 318.665 3.88258 318.976 4.19318C319.29 4.50379 319.519 4.86364 319.663 5.27273C319.811 5.68182 319.858 6.12311 319.805 6.59659L317.834 6.43182C317.86 6.08712 317.804 5.80492 317.663 5.58523C317.527 5.36174 317.338 5.19886 317.095 5.09659C316.857 4.99053 316.601 4.9375 316.328 4.9375C316.048 4.9375 315.786 5.00189 315.544 5.13068C315.305 5.25947 315.112 5.45644 314.964 5.72159C314.821 5.98674 314.749 6.32386 314.749 6.73295ZM321.808 12.8409V11.1648L326.746 3.36364H328.143V5.75H327.291L323.967 11.017V11.108H330.859V12.8409H321.808ZM327.359 15V12.3295L327.382 11.5795V3.36364H329.371V15H327.359ZM336.72 15.1591C335.963 15.1591 335.285 15.017 334.686 14.733C334.088 14.4451 333.612 14.0511 333.26 13.5511C332.911 13.0511 332.726 12.4792 332.703 11.8352H334.749C334.786 12.3125 334.993 12.7027 335.368 13.0057C335.743 13.3049 336.194 13.4545 336.72 13.4545C337.133 13.4545 337.5 13.3598 337.822 13.1705C338.144 12.9811 338.398 12.7178 338.584 12.3807C338.769 12.0436 338.86 11.6591 338.857 11.2273C338.86 10.7879 338.768 10.3977 338.578 10.0568C338.389 9.71591 338.129 9.44886 337.8 9.25568C337.47 9.05871 337.091 8.96023 336.663 8.96023C336.315 8.95644 335.972 9.02083 335.635 9.15341C335.298 9.28598 335.031 9.46023 334.834 9.67614L332.93 9.36364L333.538 3.36364H340.288V5.125H335.283L334.947 8.21023H335.016C335.232 7.95644 335.536 7.74621 335.93 7.57955C336.324 7.40909 336.756 7.32386 337.226 7.32386C337.93 7.32386 338.559 7.49053 339.112 7.82386C339.665 8.15341 340.101 8.60795 340.419 9.1875C340.737 9.76705 340.896 10.4299 340.896 11.1761C340.896 11.9451 340.718 12.6307 340.362 13.233C340.01 13.8314 339.519 14.303 338.891 14.6477C338.266 14.9886 337.542 15.1591 336.72 15.1591Z" fill="white"/>
</svg>
