<svg width="12" height="20" viewBox="0 0 12 20" fill="none" xmlns="http://www.w3.org/2000/svg">
<path d="M8.3707 5.575C8.3707 4.85833 8.13337 4.28333 7.6587 3.85C7.18403 3.41667 6.5547 3.2 5.7707 3.2C5.28737 3.2 4.85003 3.30433 4.4587 3.513C4.06737 3.72167 3.7297 4.02567 3.4457 4.425C3.17903 4.80833 2.81637 5.02933 2.3577 5.088C1.89903 5.14667 1.50337 5.02567 1.1707 4.725C0.937366 4.50833 0.808365 4.24167 0.783699 3.925C0.759032 3.60833 0.838032 3.30833 1.0207 3.025C1.55403 2.225 2.23337 1.60433 3.0587 1.163C3.88403 0.721667 4.78803 0.500667 5.7707 0.5C7.38737 0.5 8.70003 0.958333 9.7087 1.875C10.7174 2.79167 11.2214 3.99167 11.2207 5.475C11.2207 6.225 11.0624 6.9 10.7457 7.5C10.429 8.1 9.8457 8.80833 8.9957 9.625C8.37903 10.2083 7.96237 10.6627 7.7457 10.988C7.52903 11.3133 7.38737 11.684 7.3207 12.1C7.25403 12.5 7.08303 12.8333 6.8077 13.1C6.53237 13.3667 6.20337 13.5 5.8207 13.5C5.43803 13.5 5.10903 13.371 4.8337 13.113C4.55837 12.855 4.4207 12.534 4.4207 12.15C4.4207 11.5 4.56237 10.9043 4.8457 10.363C5.12903 9.82167 5.60403 9.25067 6.2707 8.65C7.1207 7.9 7.68337 7.321 7.9587 6.913C8.23403 6.505 8.37137 6.059 8.3707 5.575ZM5.7707 19.5C5.2207 19.5 4.75003 19.3043 4.3587 18.913C3.96737 18.5217 3.77137 18.0507 3.7707 17.5C3.77003 16.9493 3.96603 16.4787 4.3587 16.088C4.75137 15.6973 5.22203 15.5013 5.7707 15.5C6.31937 15.4987 6.79037 15.6947 7.1837 16.088C7.57703 16.4813 7.7727 16.952 7.7707 17.5C7.7687 18.048 7.57303 18.519 7.1837 18.913C6.79437 19.307 6.32337 19.5027 5.7707 19.5Z" fill="white"/>
</svg>
